<mxfile host="app.diagrams.net" modified="2024-05-10T16:59:01.235Z" agent="Mozilla/5.0 (Windows NT 10.0; Win64; x64) AppleWebKit/537.36 (KHTML, like Gecko) Chrome/123.0.0.0 Safari/537.36 OPR/109.0.0.0" etag="RoDZQ_4zcKOp9PF5YR8g" version="24.3.1" type="device">
  <diagram name="PÃ¡gina-1" id="qfyRt3LOcrLhZ4qY5aAo">
    <mxGraphModel dx="2503" dy="484" grid="1" gridSize="10" guides="1" tooltips="1" connect="1" arrows="1" fold="1" page="1" pageScale="1" pageWidth="1390" pageHeight="980" math="0" shadow="0">
      <root>
        <mxCell id="0" />
        <mxCell id="1" parent="0" />
        <mxCell id="-cAn0PIuu0p_jWIS2Jx9-1" value="User" style="swimlane;fontStyle=1;align=center;verticalAlign=top;childLayout=stackLayout;horizontal=1;startSize=26;horizontalStack=0;resizeParent=1;resizeParentMax=0;resizeLast=0;collapsible=1;marginBottom=0;whiteSpace=wrap;html=1;" vertex="1" parent="1">
          <mxGeometry x="520" y="300" width="190" height="120" as="geometry" />
        </mxCell>
        <mxCell id="-cAn0PIuu0p_jWIS2Jx9-2" value="+ userName: String&lt;div&gt;- password: String&lt;/div&gt;&lt;div&gt;- email: String&lt;/div&gt;" style="text;strokeColor=none;fillColor=none;align=left;verticalAlign=top;spacingLeft=4;spacingRight=4;overflow=hidden;rotatable=0;points=[[0,0.5],[1,0.5]];portConstraint=eastwest;whiteSpace=wrap;html=1;" vertex="1" parent="-cAn0PIuu0p_jWIS2Jx9-1">
          <mxGeometry y="26" width="190" height="54" as="geometry" />
        </mxCell>
        <mxCell id="-cAn0PIuu0p_jWIS2Jx9-3" value="" style="line;strokeWidth=1;fillColor=none;align=left;verticalAlign=middle;spacingTop=-1;spacingLeft=3;spacingRight=3;rotatable=0;labelPosition=right;points=[];portConstraint=eastwest;strokeColor=inherit;" vertex="1" parent="-cAn0PIuu0p_jWIS2Jx9-1">
          <mxGeometry y="80" width="190" height="8" as="geometry" />
        </mxCell>
        <mxCell id="-cAn0PIuu0p_jWIS2Jx9-4" value="+ changePassword(String): void" style="text;strokeColor=none;fillColor=none;align=left;verticalAlign=top;spacingLeft=4;spacingRight=4;overflow=hidden;rotatable=0;points=[[0,0.5],[1,0.5]];portConstraint=eastwest;whiteSpace=wrap;html=1;" vertex="1" parent="-cAn0PIuu0p_jWIS2Jx9-1">
          <mxGeometry y="88" width="190" height="32" as="geometry" />
        </mxCell>
        <mxCell id="-cAn0PIuu0p_jWIS2Jx9-5" value="Routine" style="swimlane;fontStyle=1;align=center;verticalAlign=top;childLayout=stackLayout;horizontal=1;startSize=26;horizontalStack=0;resizeParent=1;resizeParentMax=0;resizeLast=0;collapsible=1;marginBottom=0;whiteSpace=wrap;html=1;" vertex="1" parent="1">
          <mxGeometry x="-40" y="480" width="160" height="190" as="geometry" />
        </mxCell>
        <mxCell id="-cAn0PIuu0p_jWIS2Jx9-6" value="&lt;div&gt;+ creatorName: String&lt;/div&gt;+ routineName: String&lt;div&gt;+ Objective: String&lt;/div&gt;&lt;div&gt;+ Progress: float&lt;/div&gt;&lt;div&gt;+ IDCode: String&lt;/div&gt;" style="text;strokeColor=none;fillColor=none;align=left;verticalAlign=top;spacingLeft=4;spacingRight=4;overflow=hidden;rotatable=0;points=[[0,0.5],[1,0.5]];portConstraint=eastwest;whiteSpace=wrap;html=1;" vertex="1" parent="-cAn0PIuu0p_jWIS2Jx9-5">
          <mxGeometry y="26" width="160" height="84" as="geometry" />
        </mxCell>
        <mxCell id="-cAn0PIuu0p_jWIS2Jx9-7" value="" style="line;strokeWidth=1;fillColor=none;align=left;verticalAlign=middle;spacingTop=-1;spacingLeft=3;spacingRight=3;rotatable=0;labelPosition=right;points=[];portConstraint=eastwest;strokeColor=inherit;" vertex="1" parent="-cAn0PIuu0p_jWIS2Jx9-5">
          <mxGeometry y="110" width="160" height="8" as="geometry" />
        </mxCell>
        <mxCell id="-cAn0PIuu0p_jWIS2Jx9-8" value="+ addRoutine(): void&lt;div&gt;+ deleteRoutine(): void&lt;/div&gt;&lt;div&gt;+ editRoutine(): void&lt;/div&gt;&lt;div&gt;+ shareRoutine(String): void&lt;/div&gt;" style="text;strokeColor=none;fillColor=none;align=left;verticalAlign=top;spacingLeft=4;spacingRight=4;overflow=hidden;rotatable=0;points=[[0,0.5],[1,0.5]];portConstraint=eastwest;whiteSpace=wrap;html=1;" vertex="1" parent="-cAn0PIuu0p_jWIS2Jx9-5">
          <mxGeometry y="118" width="160" height="72" as="geometry" />
        </mxCell>
        <mxCell id="-cAn0PIuu0p_jWIS2Jx9-9" value="Game" style="swimlane;fontStyle=1;align=center;verticalAlign=top;childLayout=stackLayout;horizontal=1;startSize=26;horizontalStack=0;resizeParent=1;resizeParentMax=0;resizeLast=0;collapsible=1;marginBottom=0;whiteSpace=wrap;html=1;" vertex="1" parent="1">
          <mxGeometry x="-40" y="290" width="160" height="108" as="geometry" />
        </mxCell>
        <mxCell id="-cAn0PIuu0p_jWIS2Jx9-10" value="+ gameName: String&lt;div&gt;+ urlLogo: String&lt;/div&gt;&lt;div&gt;- urlAccess: String&lt;/div&gt;&lt;div&gt;&lt;div&gt;- gameDescription: String&lt;/div&gt;&lt;div&gt;- gameGenre: String&lt;/div&gt;&lt;/div&gt;" style="text;strokeColor=none;fillColor=none;align=left;verticalAlign=top;spacingLeft=4;spacingRight=4;overflow=hidden;rotatable=0;points=[[0,0.5],[1,0.5]];portConstraint=eastwest;whiteSpace=wrap;html=1;" vertex="1" parent="-cAn0PIuu0p_jWIS2Jx9-9">
          <mxGeometry y="26" width="160" height="74" as="geometry" />
        </mxCell>
        <mxCell id="-cAn0PIuu0p_jWIS2Jx9-11" value="" style="line;strokeWidth=1;fillColor=none;align=left;verticalAlign=middle;spacingTop=-1;spacingLeft=3;spacingRight=3;rotatable=0;labelPosition=right;points=[];portConstraint=eastwest;strokeColor=inherit;" vertex="1" parent="-cAn0PIuu0p_jWIS2Jx9-9">
          <mxGeometry y="100" width="160" height="8" as="geometry" />
        </mxCell>
        <mxCell id="-cAn0PIuu0p_jWIS2Jx9-12" value="GameProfile" style="swimlane;fontStyle=1;align=center;verticalAlign=top;childLayout=stackLayout;horizontal=1;startSize=26;horizontalStack=0;resizeParent=1;resizeParentMax=0;resizeLast=0;collapsible=1;marginBottom=0;whiteSpace=wrap;html=1;" vertex="1" parent="1">
          <mxGeometry x="220" y="290" width="220" height="140" as="geometry" />
        </mxCell>
        <mxCell id="-cAn0PIuu0p_jWIS2Jx9-13" value="+ gameProfileName: String&lt;div&gt;+ level: int&lt;/div&gt;&lt;div&gt;+ rank: String&lt;br&gt;&lt;div&gt;+ connectionState: bool&lt;/div&gt;&lt;/div&gt;" style="text;strokeColor=none;fillColor=none;align=left;verticalAlign=top;spacingLeft=4;spacingRight=4;overflow=hidden;rotatable=0;points=[[0,0.5],[1,0.5]];portConstraint=eastwest;whiteSpace=wrap;html=1;" vertex="1" parent="-cAn0PIuu0p_jWIS2Jx9-12">
          <mxGeometry y="26" width="220" height="64" as="geometry" />
        </mxCell>
        <mxCell id="-cAn0PIuu0p_jWIS2Jx9-14" value="" style="line;strokeWidth=1;fillColor=none;align=left;verticalAlign=middle;spacingTop=-1;spacingLeft=3;spacingRight=3;rotatable=0;labelPosition=right;points=[];portConstraint=eastwest;strokeColor=inherit;" vertex="1" parent="-cAn0PIuu0p_jWIS2Jx9-12">
          <mxGeometry y="90" width="220" height="8" as="geometry" />
        </mxCell>
        <mxCell id="-cAn0PIuu0p_jWIS2Jx9-15" value="+ changeConnectionState(bool): void&lt;div&gt;+ shareProfile(): void&amp;nbsp;&lt;/div&gt;" style="text;strokeColor=none;fillColor=none;align=left;verticalAlign=top;spacingLeft=4;spacingRight=4;overflow=hidden;rotatable=0;points=[[0,0.5],[1,0.5]];portConstraint=eastwest;whiteSpace=wrap;html=1;" vertex="1" parent="-cAn0PIuu0p_jWIS2Jx9-12">
          <mxGeometry y="98" width="220" height="42" as="geometry" />
        </mxCell>
        <mxCell id="-cAn0PIuu0p_jWIS2Jx9-16" value="Performance" style="swimlane;fontStyle=1;align=center;verticalAlign=top;childLayout=stackLayout;horizontal=1;startSize=26;horizontalStack=0;resizeParent=1;resizeParentMax=0;resizeLast=0;collapsible=1;marginBottom=0;whiteSpace=wrap;html=1;" vertex="1" parent="1">
          <mxGeometry x="230" y="510" width="160" height="108" as="geometry" />
        </mxCell>
        <mxCell id="-cAn0PIuu0p_jWIS2Jx9-17" value="+ winRate: float&lt;div&gt;+ loseRate: float&lt;br&gt;&lt;div&gt;+ executionRate: float&lt;div&gt;+ reactionRate: float&lt;/div&gt;&lt;/div&gt;&lt;/div&gt;&lt;div&gt;+ counterRate: float&lt;/div&gt;" style="text;strokeColor=none;fillColor=none;align=left;verticalAlign=top;spacingLeft=4;spacingRight=4;overflow=hidden;rotatable=0;points=[[0,0.5],[1,0.5]];portConstraint=eastwest;whiteSpace=wrap;html=1;" vertex="1" parent="-cAn0PIuu0p_jWIS2Jx9-16">
          <mxGeometry y="26" width="160" height="74" as="geometry" />
        </mxCell>
        <mxCell id="-cAn0PIuu0p_jWIS2Jx9-18" value="" style="line;strokeWidth=1;fillColor=none;align=left;verticalAlign=middle;spacingTop=-1;spacingLeft=3;spacingRight=3;rotatable=0;labelPosition=right;points=[];portConstraint=eastwest;strokeColor=inherit;" vertex="1" parent="-cAn0PIuu0p_jWIS2Jx9-16">
          <mxGeometry y="100" width="160" height="8" as="geometry" />
        </mxCell>
        <mxCell id="-cAn0PIuu0p_jWIS2Jx9-23" value="" style="endArrow=none;html=1;edgeStyle=orthogonalEdgeStyle;rounded=0;exitX=1;exitY=0.5;exitDx=0;exitDy=0;entryX=0;entryY=0.5;entryDx=0;entryDy=0;" edge="1" parent="1" source="-cAn0PIuu0p_jWIS2Jx9-13" target="-cAn0PIuu0p_jWIS2Jx9-2">
          <mxGeometry relative="1" as="geometry">
            <mxPoint x="480" y="380" as="sourcePoint" />
            <mxPoint x="600" y="360" as="targetPoint" />
          </mxGeometry>
        </mxCell>
        <mxCell id="-cAn0PIuu0p_jWIS2Jx9-24" value="&lt;font style=&quot;font-size: 14px;&quot;&gt;0..&lt;/font&gt;" style="edgeLabel;resizable=0;html=1;align=left;verticalAlign=bottom;" connectable="0" vertex="1" parent="-cAn0PIuu0p_jWIS2Jx9-23">
          <mxGeometry x="-1" relative="1" as="geometry" />
        </mxCell>
        <mxCell id="-cAn0PIuu0p_jWIS2Jx9-25" value="&lt;font style=&quot;font-size: 14px;&quot;&gt;1&lt;/font&gt;" style="edgeLabel;resizable=0;html=1;align=right;verticalAlign=bottom;" connectable="0" vertex="1" parent="-cAn0PIuu0p_jWIS2Jx9-23">
          <mxGeometry x="1" relative="1" as="geometry" />
        </mxCell>
        <mxCell id="-cAn0PIuu0p_jWIS2Jx9-26" value="" style="endArrow=none;html=1;edgeStyle=orthogonalEdgeStyle;rounded=0;entryX=1;entryY=0.5;entryDx=0;entryDy=0;" edge="1" parent="1" source="-cAn0PIuu0p_jWIS2Jx9-17" target="-cAn0PIuu0p_jWIS2Jx9-6">
          <mxGeometry relative="1" as="geometry">
            <mxPoint x="50" y="700" as="sourcePoint" />
            <mxPoint x="210" y="700" as="targetPoint" />
          </mxGeometry>
        </mxCell>
        <mxCell id="-cAn0PIuu0p_jWIS2Jx9-27" value="1" style="edgeLabel;resizable=0;html=1;align=left;verticalAlign=bottom;" connectable="0" vertex="1" parent="-cAn0PIuu0p_jWIS2Jx9-26">
          <mxGeometry x="-1" relative="1" as="geometry">
            <mxPoint x="-10" as="offset" />
          </mxGeometry>
        </mxCell>
        <mxCell id="-cAn0PIuu0p_jWIS2Jx9-28" value="1" style="edgeLabel;resizable=0;html=1;align=right;verticalAlign=bottom;" connectable="0" vertex="1" parent="-cAn0PIuu0p_jWIS2Jx9-26">
          <mxGeometry x="1" relative="1" as="geometry">
            <mxPoint x="10" as="offset" />
          </mxGeometry>
        </mxCell>
        <mxCell id="-cAn0PIuu0p_jWIS2Jx9-38" value="" style="endArrow=none;html=1;edgeStyle=orthogonalEdgeStyle;rounded=0;exitX=1;exitY=0.5;exitDx=0;exitDy=0;entryX=0;entryY=0.5;entryDx=0;entryDy=0;" edge="1" parent="1" source="-cAn0PIuu0p_jWIS2Jx9-10" target="-cAn0PIuu0p_jWIS2Jx9-13">
          <mxGeometry relative="1" as="geometry">
            <mxPoint x="40" y="450" as="sourcePoint" />
            <mxPoint x="200" y="450" as="targetPoint" />
          </mxGeometry>
        </mxCell>
        <mxCell id="-cAn0PIuu0p_jWIS2Jx9-39" value="1" style="edgeLabel;resizable=0;html=1;align=left;verticalAlign=bottom;" connectable="0" vertex="1" parent="-cAn0PIuu0p_jWIS2Jx9-38">
          <mxGeometry x="-1" relative="1" as="geometry" />
        </mxCell>
        <mxCell id="-cAn0PIuu0p_jWIS2Jx9-40" value="1" style="edgeLabel;resizable=0;html=1;align=right;verticalAlign=bottom;" connectable="0" vertex="1" parent="-cAn0PIuu0p_jWIS2Jx9-38">
          <mxGeometry x="1" relative="1" as="geometry" />
        </mxCell>
        <mxCell id="-cAn0PIuu0p_jWIS2Jx9-41" value="" style="endArrow=none;html=1;edgeStyle=orthogonalEdgeStyle;rounded=0;exitX=0.433;exitY=1.006;exitDx=0;exitDy=0;exitPerimeter=0;" edge="1" parent="1" source="-cAn0PIuu0p_jWIS2Jx9-15" target="-cAn0PIuu0p_jWIS2Jx9-16">
          <mxGeometry relative="1" as="geometry">
            <mxPoint x="210" y="460" as="sourcePoint" />
            <mxPoint x="370" y="460" as="targetPoint" />
          </mxGeometry>
        </mxCell>
      </root>
    </mxGraphModel>
  </diagram>
</mxfile>
